{
    "asset" : {
        "generator" : "Khronos glTF Blender I/O v1.6.16",
        "version" : "2.0"
    },
    "scene" : 0,
    "scenes" : [
        {
            "name" : "Scene",
            "nodes" : [
                0,
                1,
                2,
                3
            ]
        }
    ],
    "nodes" : [
        {
            "mesh" : 0,
            "name" : "Cube"
        },
        {
            "mesh" : 1,
            "name" : "bank_2_beine",
            "rotation" : [
                0.7071068286895752,
                0,
                0,
                0.7071068286895752
            ],
            "translation" : [
                0.8296483159065247,
                0.008871752768754959,
                0
            ]
        },
        {
            "mesh" : 2,
            "name" : "Cube.001"
        },
        {
            "mesh" : 3,
            "name" : "Cube.002",
            "translation" : [
                0.9726024866104126,
                0.5548808574676514,
                -0.05291391909122467
            ]
        }
    ],
    "materials" : [
        {
            "doubleSided" : true,
            "name" : "final_mat_2",
            "pbrMetallicRoughness" : {
                "baseColorTexture" : {
                    "index" : 0
                },
                "metallicFactor" : 0,
                "roughnessFactor" : 0.3509090840816498
            }
        }
    ],
    "meshes" : [
        {
            "name" : "Cube.005",
            "primitives" : [
                {
                    "attributes" : {
                        "POSITION" : 0,
                        "NORMAL" : 1,
                        "TEXCOORD_0" : 2
                    },
                    "indices" : 3,
                    "material" : 0
                }
            ]
        },
        {
            "name" : "Cylinder",
            "primitives" : [
                {
                    "attributes" : {
                        "POSITION" : 4,
                        "NORMAL" : 5,
                        "TEXCOORD_0" : 6
                    },
                    "indices" : 7,
                    "material" : 0
                }
            ]
        },
        {
            "name" : "Cube.006",
            "primitives" : [
                {
                    "attributes" : {
                        "POSITION" : 8,
                        "NORMAL" : 9,
                        "TEXCOORD_0" : 10
                    },
                    "indices" : 11,
                    "material" : 0
                }
            ]
        },
        {
            "name" : "Cube.007",
            "primitives" : [
                {
                    "attributes" : {
                        "POSITION" : 12,
                        "NORMAL" : 13,
                        "TEXCOORD_0" : 14
                    },
                    "indices" : 15,
                    "material" : 0
                }
            ]
        }
    ],
    "textures" : [
        {
            "sampler" : 0,
            "source" : 0
        }
    ],
    "images" : [
        {
            "bufferView" : 4,
            "mimeType" : "image/png",
            "name" : "dif_bench2"
        }
    ],
    "accessors" : [
        {
            "bufferView" : 0,
            "componentType" : 5126,
            "count" : 96,
            "max" : [
                0.9301497340202332,
                0.7801185250282288,
                -0.22550632059574127
            ],
            "min" : [
                -0.9301497936248779,
                0.5801717042922974,
                -0.3078935444355011
            ],
            "type" : "VEC3"
        },
        {
            "bufferView" : 1,
            "componentType" : 5126,
            "count" : 96,
            "type" : "VEC3"
        },
        {
            "bufferView" : 2,
            "componentType" : 5126,
            "count" : 96,
            "type" : "VEC2"
        },
        {
            "bufferView" : 3,
            "componentType" : 5123,
            "count" : 144,
            "type" : "SCALAR"
        },
        {
            "bufferView" : 5,
            "componentType" : 5126,
            "count" : 2234,
            "max" : [
                0.15185017883777618,
                0.24471189081668854,
                0.012090831063687801
            ],
            "min" : [
                -1.811146855354309,
                -0.2970084547996521,
                -0.735926628112793
            ],
            "type" : "VEC3"
        },
        {
            "bufferView" : 6,
            "componentType" : 5126,
            "count" : 2234,
            "type" : "VEC3"
        },
        {
            "bufferView" : 7,
            "componentType" : 5126,
            "count" : 2234,
            "type" : "VEC2"
        },
        {
            "bufferView" : 8,
            "componentType" : 5123,
            "count" : 8496,
            "type" : "SCALAR"
        },
        {
            "bufferView" : 9,
            "componentType" : 5126,
            "count" : 216,
            "max" : [
                0.9301497340202332,
                0.40342020988464355,
                0.28238558769226074
            ],
            "min" : [
                -0.9301497340202332,
                0.32997798919677734,
                -0.1967802792787552
            ],
            "type" : "VEC3"
        },
        {
            "bufferView" : 10,
            "componentType" : 5126,
            "count" : 216,
            "type" : "VEC3"
        },
        {
            "bufferView" : 11,
            "componentType" : 5126,
            "count" : 216,
            "type" : "VEC2"
        },
        {
            "bufferView" : 12,
            "componentType" : 5123,
            "count" : 324,
            "type" : "SCALAR"
        },
        {
            "bufferView" : 13,
            "componentType" : 5126,
            "count" : 48,
            "max" : [
                0.02326291799545288,
                0.009590649977326393,
                0.17101643979549408
            ],
            "min" : [
                -1.9684679508209229,
                -0.009590759873390198,
                -0.1710163801908493
            ],
            "type" : "VEC3"
        },
        {
            "bufferView" : 14,
            "componentType" : 5126,
            "count" : 48,
            "type" : "VEC3"
        },
        {
            "bufferView" : 15,
            "componentType" : 5126,
            "count" : 48,
            "type" : "VEC2"
        },
        {
            "bufferView" : 16,
            "componentType" : 5123,
            "count" : 72,
            "type" : "SCALAR"
        }
    ],
    "bufferViews" : [
        {
            "buffer" : 0,
            "byteLength" : 1152,
            "byteOffset" : 0
        },
        {
            "buffer" : 0,
            "byteLength" : 1152,
            "byteOffset" : 1152
        },
        {
            "buffer" : 0,
            "byteLength" : 768,
            "byteOffset" : 2304
        },
        {
            "buffer" : 0,
            "byteLength" : 288,
            "byteOffset" : 3072
        },
        {
            "buffer" : 0,
            "byteLength" : 30747,
            "byteOffset" : 3360
        },
        {
            "buffer" : 0,
            "byteLength" : 26808,
            "byteOffset" : 34108
        },
        {
            "buffer" : 0,
            "byteLength" : 26808,
            "byteOffset" : 60916
        },
        {
            "buffer" : 0,
            "byteLength" : 17872,
            "byteOffset" : 87724
        },
        {
            "buffer" : 0,
            "byteLength" : 16992,
            "byteOffset" : 105596
        },
        {
            "buffer" : 0,
            "byteLength" : 2592,
            "byteOffset" : 122588
        },
        {
            "buffer" : 0,
            "byteLength" : 2592,
            "byteOffset" : 125180
        },
        {
            "buffer" : 0,
            "byteLength" : 1728,
            "byteOffset" : 127772
        },
        {
            "buffer" : 0,
            "byteLength" : 648,
            "byteOffset" : 129500
        },
        {
            "buffer" : 0,
            "byteLength" : 576,
            "byteOffset" : 130148
        },
        {
            "buffer" : 0,
            "byteLength" : 576,
            "byteOffset" : 130724
        },
        {
            "buffer" : 0,
            "byteLength" : 384,
            "byteOffset" : 131300
        },
        {
            "buffer" : 0,
            "byteLength" : 144,
            "byteOffset" : 131684
        }
    ],
    "samplers" : [
        {
            "magFilter" : 9729,
            "minFilter" : 9987
        }
    ],
    "buffers" : [
        {
            "byteLength" : 131828,
            "uri" : "data:application/octet-stream;base64,"
        }
    ]
}
