{
    "asset" : {
        "generator" : "Khronos glTF Blender I/O v1.6.16",
        "version" : "2.0"
    },
    "scene" : 0,
    "scenes" : [
        {
            "name" : "Scene",
            "nodes" : [
                0,
                1
            ]
        }
    ],
    "nodes" : [
        {
            "mesh" : 0,
            "name" : "Cube"
        },
        {
            "mesh" : 1,
            "name" : "Plane.002",
            "translation" : [
                -1.1994621753692627,
                -0.00902235135436058,
                -0.0006014895625412464
            ]
        }
    ],
    "materials" : [
        {
            "doubleSided" : true,
            "name" : "Final Material",
            "normalTexture" : {
                "index" : 0
            },
            "pbrMetallicRoughness" : {
                "baseColorTexture" : {
                    "index" : 1
                },
                "metallicFactor" : 0,
                "roughnessFactor" : 0.5
            }
        }
    ],
    "meshes" : [
        {
            "name" : "Cube.004",
            "primitives" : [
                {
                    "attributes" : {
                        "POSITION" : 0,
                        "NORMAL" : 1,
                        "TEXCOORD_0" : 2
                    },
                    "indices" : 3,
                    "material" : 0
                }
            ]
        },
        {
            "name" : "Plane.003",
            "primitives" : [
                {
                    "attributes" : {
                        "POSITION" : 4,
                        "NORMAL" : 5,
                        "TEXCOORD_0" : 6
                    },
                    "indices" : 7,
                    "material" : 0
                }
            ]
        }
    ],
    "textures" : [
        {
            "sampler" : 0,
            "source" : 0
        },
        {
            "sampler" : 0,
            "source" : 1
        }
    ],
    "images" : [
        {
            "bufferView" : 4,
            "mimeType" : "image/png",
            "name" : "normal_bench"
        },
        {
            "bufferView" : 5,
            "mimeType" : "image/png",
            "name" : "dif_bench"
        }
    ],
    "accessors" : [
        {
            "bufferView" : 0,
            "componentType" : 5126,
            "count" : 312,
            "max" : [
                0.9281339645385742,
                0.8822101950645447,
                0.2953880727291107
            ],
            "min" : [
                -0.928134024143219,
                0.35587233304977417,
                -0.3589649796485901
            ],
            "type" : "VEC3"
        },
        {
            "bufferView" : 1,
            "componentType" : 5126,
            "count" : 312,
            "type" : "VEC3"
        },
        {
            "bufferView" : 2,
            "componentType" : 5126,
            "count" : 312,
            "type" : "VEC2"
        },
        {
            "bufferView" : 3,
            "componentType" : 5123,
            "count" : 468,
            "type" : "SCALAR"
        },
        {
            "bufferView" : 6,
            "componentType" : 5126,
            "count" : 4826,
            "max" : [
                1.9682042598724365,
                0.8522924780845642,
                0.2840910851955414
            ],
            "min" : [
                0.43072012066841125,
                0.0002338550693821162,
                -0.3724483847618103
            ],
            "type" : "VEC3"
        },
        {
            "bufferView" : 7,
            "componentType" : 5126,
            "count" : 4826,
            "type" : "VEC3"
        },
        {
            "bufferView" : 8,
            "componentType" : 5126,
            "count" : 4826,
            "type" : "VEC2"
        },
        {
            "bufferView" : 9,
            "componentType" : 5123,
            "count" : 18072,
            "type" : "SCALAR"
        }
    ],
    "bufferViews" : [
        {
            "buffer" : 0,
            "byteLength" : 3744,
            "byteOffset" : 0
        },
        {
            "buffer" : 0,
            "byteLength" : 3744,
            "byteOffset" : 3744
        },
        {
            "buffer" : 0,
            "byteLength" : 2496,
            "byteOffset" : 7488
        },
        {
            "buffer" : 0,
            "byteLength" : 936,
            "byteOffset" : 9984
        },
        {
            "buffer" : 0,
            "byteLength" : 165642,
            "byteOffset" : 10920
        },
        {
            "buffer" : 0,
            "byteLength" : 108576,
            "byteOffset" : 176564
        },
        {
            "buffer" : 0,
            "byteLength" : 57912,
            "byteOffset" : 285140
        },
        {
            "buffer" : 0,
            "byteLength" : 57912,
            "byteOffset" : 343052
        },
        {
            "buffer" : 0,
            "byteLength" : 38608,
            "byteOffset" : 400964
        },
        {
            "buffer" : 0,
            "byteLength" : 36144,
            "byteOffset" : 439572
        }
    ],
    "samplers" : [
        {
            "magFilter" : 9729,
            "minFilter" : 9987
        }
    ],
    "buffers" : [
        {
            "byteLength" : 475716,
            "uri" : "data:application/octet-stream;base64,"
        }
    ]
}
